<svg width="115" height="18" viewBox="0 0 115 18" fill="none" xmlns="http://www.w3.org/2000/svg">
<path d="M60.2043 3.47599V0.761993H49.4633V17H52.4763V10.123H114.261V7.52399H52.4763V3.47599H60.2043Z" fill="white"/>
<path d="M97.3408 0V16.238H103.482C108.266 16.238 111.095 13.455 111.095 8.257C111.095 2.438 107.507 0 103.666 0H97.3408ZM100.377 2.737H102.884C105.897 2.737 107.875 4.255 107.875 8.257C107.875 12.834 105.782 13.501 102.263 13.501H100.377V2.737Z" fill="white"/>
<path d="M77.9976 8.556C77.9976 13.11 80.9416 17.066 85.7256 17.066C91.5676 17.066 93.5686 12.121 93.5686 8.441C93.5686 4.048 90.7396 0 85.7946 0C81.1026 0 77.9976 3.795 77.9976 8.556ZM81.1256 8.441C81.1256 4.876 83.1036 2.783 85.7716 2.783C88.9916 2.783 90.5096 5.796 90.5096 8.694C90.5096 12.374 88.2326 14.237 85.8176 14.237C82.3446 14.237 81.1256 10.971 81.1256 8.441Z" fill="#FFD25E"/>
<path d="M61.6893 8.556C61.6893 13.11 64.6333 17.066 69.4173 17.066C75.2593 17.066 77.2603 12.121 77.2603 8.441C77.2603 4.048 74.4313 0 69.4863 0C64.7943 0 61.6893 3.795 61.6893 8.556ZM64.8173 8.441C64.8173 4.876 66.7953 2.783 69.4633 2.783C72.6833 2.783 74.2013 5.796 74.2013 8.694C74.2013 12.374 71.9243 14.237 69.5093 14.237C66.0363 14.237 64.8173 10.971 64.8173 8.441Z" fill="#FFD25E"/>
<path d="M14.49 17L8.947 0.761993H5.497L0 17H3.266L4.209 13.826H10.304L11.247 17H14.49ZM9.499 11.158H5.014L7.268 3.68299L9.499 11.158Z" fill="white"/>
<path d="M30.2451 17V0.761993H27.2551C27.2781 1.12999 27.6231 12.216 27.6231 12.216L20.4241 0.761993H17.6871V17H20.6541C20.6541 16.701 20.4701 5.61499 20.4701 5.61499L27.5771 17H30.2451Z" fill="white"/>
<path d="M46.007 0.761993H42.603L39.061 7.47799L35.542 0.761993H32.092L37.52 10.583V17H40.533V10.583L46.007 0.761993Z" fill="white"/>
<ellipse cx="69.5" cy="8.5" rx="5.5" ry="6.5" fill="#FFD25D"/>
<ellipse cx="85.5" cy="8.5" rx="5.5" ry="6.5" fill="#FFD25D"/>
</svg>